<svg fill="none" height="23" viewBox="0 0 31 23" width="31" xmlns="http://www.w3.org/2000/svg"><g fill="#c6c6c6"><path d="m.00581254 3.54816 15.49418746 7.52944 15.4942-7.52944c-.0574-.95966-.49-1.86168-1.2094-2.52133-.7193-.659649-1.6709-1.02700625-2.6598-1.02682994h-23.25c-.98893-.00017631-1.94051.36718094-2.65984 1.02682994-.719338.65965-1.1519895 1.56167-1.20934746 2.52133z"/><path d="m31 7.75547-15.5 7.53323-15.5-7.53323v11.07763c0 .999.408258 1.957 1.13496 2.6634.7267.7064 1.71233 1.1032 2.74004 1.1032h23.25c1.0277 0 2.0133-.3968 2.74-1.1032s1.135-1.6644 1.135-2.6634z"/></g></svg>