<svg fill="none" height="66" viewBox="0 0 86 66" width="86" xmlns="http://www.w3.org/2000/svg"><path d="m21.7986 0h18.5999l-15.4 33c7.2 2.6667 10.8 7.8667 10.8 15.6 0 5.0667-1.7333 9.2667-5.1999 12.6-3.3334 3.2-7.5334 4.8-12.6001 4.8-4.5333 0-8.66662-1.4-12.39995-4.2-3.6-2.9333-5.400001-7.7333-5.400001-14.4-.2666671-6.4 6.933331-22.2 21.600051-47.4zm49 33c7.0666 2.6667 10.6 7.8667 10.6 15.6 0 5.2-1.6667 9.4-5 12.6-3.3334 3.2-7.5334 4.8-12.6001 4.8-4.6666 0-8.8666-1.4-12.5999-4.2-3.6001-2.9333-5.4001-7.7333-5.4001-14.4s7.2001-22.4667 21.6001-47.4h18.6z" fill="#fff" opacity=".15"/></svg>