<svg width="12" height="12" viewBox="0 0 12 12" fill="none" xmlns="http://www.w3.org/2000/svg">
<path fill-rule="evenodd" clip-rule="evenodd" d="M0.293015 0.292893C0.68354 -0.0976311 1.3167 -0.0976311 1.70723 0.292893L6.00012 4.58579L10.293 0.292893C10.6835 -0.0976311 11.3167 -0.0976311 11.7072 0.292893C12.0978 0.683417 12.0978 1.31658 11.7072 1.70711L7.41434 6L11.7072 10.2929C12.0978 10.6834 12.0978 11.3166 11.7072 11.7071C11.3167 12.0976 10.6835 12.0976 10.293 11.7071L6.00012 7.41421L1.70723 11.7071C1.3167 12.0976 0.68354 12.0976 0.293015 11.7071C-0.097509 11.3166 -0.097509 10.6834 0.293015 10.2929L4.58591 6L0.293015 1.70711C-0.097509 1.31658 -0.097509 0.683417 0.293015 0.292893Z" fill="white"/>
</svg>
