<svg width="277" height="277" viewBox="0 0 277 277" fill="none" xmlns="http://www.w3.org/2000/svg">
<g clip-path="url(#clip0)">
<path d="M33.1456 2.47266C15.3376 2.47266 0.851562 16.9597 0.851562 34.7667C0.851562 52.5737 15.3316 67.0597 33.1456 67.0597C50.9596 67.0597 65.4396 52.5737 65.4396 34.7667C65.4396 16.9597 50.9526 2.47266 33.1456 2.47266Z" fill="white"/>
<path d="M137.661 2.47266C119.854 2.47266 105.367 16.9597 105.367 34.7667C105.367 52.5737 119.854 67.0597 137.661 67.0597C155.469 67.0597 169.958 52.5737 169.958 34.7667C169.958 16.9597 155.475 2.47266 137.661 2.47266Z" fill="white"/>
<path d="M243.872 67.0607C261.676 67.0607 276.166 52.5747 276.166 34.7677C276.166 16.9607 261.688 2.47266 243.872 2.47266C226.056 2.47266 211.578 16.9597 211.578 34.7667C211.578 52.5737 226.067 67.0607 243.872 67.0607Z" fill="white"/>
<path d="M32.3 170.539C50.107 170.539 64.597 156.056 64.597 138.246C64.597 120.435 50.107 105.949 32.3 105.949C14.493 105.949 0 120.436 0 138.246C0 156.056 14.493 170.539 32.3 170.539Z" fill="white"/>
<path d="M136.817 170.539C154.621 170.539 169.111 156.056 169.111 138.246C169.111 120.435 154.633 105.949 136.817 105.949C119.004 105.949 104.523 120.435 104.523 138.246C104.523 156.056 119.01 170.539 136.817 170.539Z" fill="white"/>
<path d="M243.036 170.539C260.847 170.539 275.33 156.056 275.33 138.246C275.33 120.435 260.847 105.949 243.036 105.949C225.225 105.949 210.73 120.435 210.73 138.246C210.73 156.056 225.22 170.539 243.036 170.539Z" fill="white"/>
<path d="M33.0383 209.109C15.2313 209.109 0.738281 223.592 0.738281 241.403C0.738281 259.207 15.2313 273.696 33.0383 273.696C50.8453 273.696 65.3313 259.214 65.3313 241.403C65.3313 223.592 50.8453 209.109 33.0383 209.109Z" fill="white"/>
<path d="M137.566 209.109C119.758 209.109 105.266 223.592 105.266 241.403C105.266 259.207 119.753 273.696 137.566 273.696C155.37 273.696 169.859 259.214 169.859 241.403C169.859 223.592 155.37 209.109 137.566 209.109Z" fill="white"/>
<path d="M243.771 209.109C225.967 209.109 211.477 223.592 211.477 241.403C211.477 259.207 225.967 273.696 243.771 273.696C261.582 273.696 276.065 259.214 276.065 241.403C276.065 223.592 261.575 209.109 243.771 209.109Z" fill="white"/>
</g>
<defs>
<clipPath id="clip0">
<rect width="276.167" height="276.167" fill="white"/>
</clipPath>
</defs>
</svg>
