<svg fill="none" height="27" viewBox="0 0 27 27" width="27" xmlns="http://www.w3.org/2000/svg" xmlns:xlink="http://www.w3.org/1999/xlink"><clipPath id="a"><path d="m0 0h27v27h-27z"/></clipPath><g clip-path="url(#a)"><path d="m13.5 2.43338c3.6045 0 4.032.0135 5.4563.07875 3.6585.1665 5.3673 1.90237 5.5338 5.53387.0653 1.42312.0776 1.85063.0776 5.4551 0 3.6057-.0135 4.032-.0776 5.4552-.1676 3.6281-1.872 5.3673-5.5338 5.5338-1.4243.0653-1.8495.0788-5.4563.0788-3.6045 0-4.032-.0135-5.45512-.0788-3.6675-.1676-5.36738-1.9113-5.53388-5.535-.06525-1.4231-.07875-1.8495-.07875-5.4551 0-3.6045.01463-4.03087.07875-5.45512.16763-3.63038 1.872-5.36738 5.53388-5.53388 1.42425-.06412 1.85062-.07762 5.45512-.07762zm0-2.43338c-3.66638 0-4.12538.01575-5.56538.081-4.90274.225-7.627495 2.94525-7.852495 7.8525-.066375 1.44113-.082125 1.90012-.082125 5.5665 0 3.6664.01575 4.1265.081 5.5665.225 4.9027 2.94525 7.6275 7.8525 7.8525 1.44113.0652 1.90012.081 5.5665.081 3.6664 0 4.1265-.0158 5.5665-.081 4.8983-.225 7.6298-2.9453 7.8514-7.8525.0664-1.44.0821-1.9001.0821-5.5665 0-3.66638-.0158-4.12538-.081-5.56538-.2205-4.89825-2.9441-7.627495-7.8514-7.852495-1.4411-.066375-1.9012-.082125-5.5676-.082125zm0 6.56775c-3.82838 0-6.93225 3.10387-6.93225 6.93225 0 3.8284 3.10387 6.9334 6.93225 6.9334 3.8284 0 6.9323-3.1039 6.9323-6.9334 0-3.82838-3.1039-6.93225-6.9323-6.93225zm0 11.43225c-2.4851 0-4.5-2.0137-4.5-4.5 0-2.4851 2.0149-4.5 4.5-4.5s4.5 2.0149 4.5 4.5c0 2.4863-2.0149 4.5-4.5 4.5zm7.2068-13.32562c-.8955 0-1.6212.72562-1.6212 1.61999 0 .89438.7257 1.62 1.6212 1.62.8943 0 1.6188-.72562 1.6188-1.62 0-.89437-.7245-1.61999-1.6188-1.61999z" fill="#c6c6c6"/></g></svg>