<svg width="31" height="23" viewBox="0 0 31 23" fill="none" xmlns="http://www.w3.org/2000/svg">
<path d="M0.00581254 3.54816L15.5 11.0776L30.9942 3.54816C30.9368 2.5885 30.5042 1.68648 29.7848 1.02683C29.0655 0.367181 28.1139 -0.000176249 27.125 6.34363e-08H3.875C2.88607 -0.000176249 1.93449 0.367181 1.21516 1.02683C0.495822 1.68648 0.0631705 2.5885 0.00581254 3.54816Z" fill="#C6C6C6"/>
<path d="M31 7.75547L15.5 15.2887L0 7.75547V18.8331C0 19.8321 0.408258 20.7901 1.13496 21.4965C1.86166 22.2029 2.84729 22.5997 3.875 22.5997H27.125C28.1527 22.5997 29.1383 22.2029 29.865 21.4965C30.5917 20.7901 31 19.8321 31 18.8331V7.75547Z" fill="#C6C6C6"/>
</svg>
