<svg fill="none" height="29" viewBox="0 0 29 29" width="29" xmlns="http://www.w3.org/2000/svg"><path d="m14.5 0c-8.004 0-14.5 6.38299-14.5 14.2477 0 7.8648 6.496 14.2478 14.5 14.2478s14.5-6.383 14.5-14.2478c0-7.86471-6.496-14.2477-14.5-14.2477zm-11.6 14.2477c0-.8691.116-1.7239.3045-2.5361l6.931 6.8105v1.4247c0 1.5673 1.305 2.8496 2.9 2.8496v2.7498c-5.6985-.7124-10.1355-5.4996-10.1355-11.2985zm20.1405 7.6938c-.377-1.154-1.45-1.9947-2.755-1.9947h-1.45v-4.2743c0-.7836-.6525-1.4248-1.45-1.4248h-8.7v-2.8495h2.9c.7975 0 1.45-.6412 1.45-1.42478v-2.84955h2.9c1.595 0 2.9-1.2823 2.9-2.84955v-.58415c4.2485 1.68123 7.2645 5.78458 7.2645 10.55753 0 2.9636-1.1745 5.6706-3.0595 7.6938z" fill="#c6c6c6"/></svg>