<svg width="150" height="146" viewBox="0 0 150 146" fill="none" xmlns="http://www.w3.org/2000/svg">
<path d="M147.41 75.6267C145.804 75.4431 144.348 76.573 144.16 78.1522C143.604 82.7233 141.091 86.7054 138.686 90.1389C134.816 84.6952 129.345 80.3069 124.573 75.6731C131.941 74.8501 139.384 70.0147 140.603 63.527C142.469 54.548 136.211 46.1266 128.641 43.0683C133.642 31.8975 130.86 17.4576 120.699 10.6961C108.682 3.07794 95.4257 7.77426 89.8648 19.9517C84.0558 11.6234 77.2472 3.74609 64.3472 0.592468C43.5722 -3.44722 35.8282 14.2505 41.5109 31.0209C44.6419 40.7947 50.5162 49.5192 58.2872 56.0588C53.6545 57.414 48.7979 58.0045 43.7908 57.8231C42.2008 47.2326 36.5278 34.3335 26.7007 30.4109C21.5178 28.3512 14.2516 29.0208 10.3938 34.2848C7.29772 38.5087 7.41813 44.6761 10.6926 49.63C15.8017 57.459 28.8368 61.8996 38.479 63.1591C38.6231 65.4373 38.6187 67.7575 38.4646 70.0967L2.84225 71.14C1.22506 71.1875 -0.0470065 72.514 0.00133332 74.1033C0.0493802 75.6927 1.40788 76.9437 3.01686 76.8948L37.7934 75.8752C37.2851 78.9721 36.5281 82.1519 35.5232 85.433C33.6886 85.1388 31.6159 85.1149 29.1482 85.7244C14.9501 89.1497 8.27184 107.133 22.9833 117.984C21.0582 139.025 46.1363 143.283 62.6908 135.673C66.4033 139.715 71.0506 142.96 76.2397 144.955C77.7075 145.531 79.4468 144.82 80.0366 143.325C80.6275 141.845 79.8848 140.175 78.3787 139.594C74.5343 138.116 71.0427 135.814 68.1377 132.962C72.0327 130.741 75.802 127.977 79.3956 124.7C87.0462 130.486 102.176 133.018 111.686 132.43C109.222 135.052 105.622 137.612 102.016 139.121C100.533 139.755 99.8542 141.452 100.5 142.909C101.147 144.382 102.908 145.029 104.356 144.399C105.712 143.819 107.036 143.151 108.292 142.416C113.505 139.361 117.306 135.345 120.027 131.176C135.678 127.713 148.366 111.07 141.831 95.7224C145.473 90.71 149.054 85.8102 149.98 78.8201C150.167 77.2408 149.017 75.8113 147.41 75.6267ZM24.5621 53.2448C20.1637 51.2306 17.3184 49.086 15.6069 46.494C13.971 44.0191 13.2881 40.1862 15.1484 37.6483C16.4451 35.879 18.7256 35.098 20.9955 35.098C30.6271 35.2886 36.1475 48.5917 37.7527 57.237C33.207 56.5191 28.7846 55.1816 24.5621 53.2448ZM134.93 95.0232C131.997 98.4111 128.935 100.83 125.276 101.869C123.633 92.31 118.36 82.0229 107.947 80.3029C108.598 78.5152 109.526 77.2005 110.724 76.3833C112.27 75.3299 113.817 75.2865 116.361 75.4955C122.122 82.1957 130.354 87.6804 134.93 95.0232ZM67.6373 100.909C65.2956 103.755 63.826 106.103 62.6457 107.99C61.3795 110.014 60.4622 111.477 59.0167 112.836C58.6856 106.726 59.955 100.688 61.1902 95.8801C62.5065 90.7566 64.1313 84.4419 68.6219 78.1165C68.6243 78.1134 68.6269 78.1102 68.6296 78.1067L68.6293 78.1064C69.3008 77.1522 70.1401 76.0827 70.8582 75.2738C79.9464 76.0701 85.2444 78.1125 88.8693 84.0608C88.5339 84.2421 88.204 84.4318 87.8758 84.6236C79.7161 89.0239 72.9198 94.4903 67.6373 100.909ZM39.3131 92.4591C45.1487 94.4224 51.0992 93.4439 56.8232 89.6351C54.4833 98.2021 52.2163 106.065 53.4784 116.396C45.4853 119.933 36.911 119.762 29.4233 115.322C30.4642 111.402 32.5601 107.554 34.4342 103.727C36.3397 99.841 37.9619 96.094 39.3131 92.4591ZM91.2362 77.4789C87.2436 73.1764 81.993 71.1921 77.0794 70.2505C78.7097 69.2495 80.1385 68.4087 82.0129 67.0992C90.5624 68.4075 99.4437 67.2598 107.41 63.8252C108.828 65.9609 110.257 67.9656 111.712 69.8685C106.661 70.8311 103.285 74.7191 101.889 80.1118C99.3514 80.3231 96.7692 80.8648 94.2412 81.7195C93.4162 80.167 92.4113 78.7478 91.2362 77.4789ZM98.9102 51.2243C99.1466 51.0515 99.3898 50.8837 99.6382 50.7199C101.226 53.6735 102.761 56.376 104.274 58.8747C99.2928 60.882 93.8281 61.8965 88.4439 61.8472C90.2334 60.1946 92.2897 58.0759 93.9172 56.171C95.549 54.3114 97.09 52.5545 98.9102 51.2243ZM104.901 48.1835C109.586 46.5682 115.067 46.0581 119.998 46.7116C117.339 50.4997 113.751 53.7664 109.522 56.281C108.017 53.8113 106.488 51.1295 104.901 48.1835ZM106.796 85.9472C114.035 87.2233 117.619 94.0988 119.409 102.319C111.673 101.475 106.028 93.5729 106.796 85.9472ZM134.896 62.2195C133.694 68.0503 125.023 70.7839 119.262 69.9718C116.988 67.2897 114.801 64.3837 112.637 61.1584C118.178 57.8355 122.721 53.4794 125.983 48.2206C131.429 50.1868 136.135 56.2793 134.896 62.2195ZM101.682 14.6624C112.769 8.54719 124.687 17.9485 125.201 30.0364C125.409 33.7327 124.654 37.6065 123.015 41.3578C116.481 40.006 108.403 40.6963 102.209 43.0424C99.3605 37.5032 96.6444 31.5794 93.5521 26.0249C95.7087 20.7382 97.92 16.9671 101.682 14.6624ZM90.7756 33.2252C92.8396 37.2591 94.9279 41.6422 96.9491 45.5794C92.8636 48.0004 90.1704 51.834 87.0497 55.0872C84.5281 57.6708 82.4105 59.5328 80.5519 60.9787C76.9595 60.1934 73.5567 58.9245 70.2573 57.1947C79.9182 51.6941 87.1191 43.2238 90.7756 33.2252ZM47.0993 29.2914C42.9312 16.434 47.1365 3.06383 63.1065 6.21918C75.2255 9.1995 81.6626 17.7107 87.0898 26.4893C85.9578 29.4518 84.8448 32.5642 83.5393 35.2546C79.7676 43.0369 72.9157 49.6657 64.591 53.6427C56.5115 47.6987 50.1807 38.91 47.0993 29.2914ZM44.3717 63.5989C51.1727 63.7362 57.7156 62.6441 63.9441 60.2127C67.2268 62.3009 70.6824 63.9668 74.2607 65.192C72.2747 66.4057 70.4304 67.5744 68.474 69.3932C63.2882 69.2234 49.6203 69.8204 44.3451 69.9234C44.4658 67.797 44.4749 65.684 44.3717 63.5989ZM61.4808 75.1823C62.1444 75.1633 62.8446 75.1457 63.5668 75.1328C55.632 84.8772 49.2731 89.4742 41.1637 86.995C42.3459 83.1194 43.2066 79.3644 43.748 75.7007L61.4808 75.1823ZM20.6214 104.435C19.6888 95.7258 28.3976 90.5931 33.6128 91.0091C32.3676 94.3006 30.8858 97.6998 29.1555 101.228C27.4874 104.624 25.7316 107.923 24.4601 111.593C22.5377 109.682 20.9638 107.292 20.6214 104.435ZM44.319 133.414C37.448 133.119 29.145 129.39 28.7823 121.535C36.7997 125.522 46.504 125.499 54.7789 122.12C55.7726 125.237 57.2026 128.208 59.0006 130.944C54.0649 132.85 49.1383 133.681 44.319 133.414ZM64.3399 128.46C62.4189 125.685 60.9549 122.602 60.0547 119.348C64.0648 116.714 65.721 114.069 67.6376 111.005C68.8214 109.08 70.6836 106.225 72.8545 103.751C71.2379 108.486 71.1339 115.523 75.2386 120.636C71.75 123.795 68.0993 126.414 64.3399 128.46ZM79.4372 116.484C75.9781 111.673 78.4715 104.601 79.8693 101.734C81.9239 96.8347 85.7779 92.5826 90.7097 89.6627C90.7376 89.6478 90.7666 89.6334 90.7944 89.6184C92.2967 99.7428 87.1138 107.974 79.4372 116.484ZM94.5538 124.96C89.9117 123.853 86.2897 122.406 83.5765 120.567C92.9524 110.387 99.0089 99.6475 96.2586 87.126C97.8087 86.6084 99.3763 86.2394 100.928 86.0163C100.14 97.2432 108.951 107.757 120.18 108.165C120.317 113.196 120.764 117.271 116.316 126.094C109.97 127.269 102.657 126.889 94.5538 124.96ZM137.374 100.95C139.486 110.802 131.967 120.125 123.786 123.785C126.155 117.232 126.323 113.808 125.998 107.638C130.522 106.578 134.197 104.092 137.37 100.93C137.371 100.937 137.373 100.943 137.374 100.95Z" fill="white"/>
<path d="M90.2969 89.0527C88.6788 89.0527 87.3672 90.3415 87.3672 91.9314C87.5216 95.75 93.0728 95.7488 93.2266 91.9314C93.2266 90.3415 91.9149 89.0527 90.2969 89.0527Z" fill="white"/>
</svg>
