<svg width="148" height="148" viewBox="0 0 148 148" fill="none" xmlns="http://www.w3.org/2000/svg">
<path d="M87.3395 147.855H60.1689H54.7348H17.1497L11.7156 147.581C5.39778 146.268 0.862816 140.666 0.855469 134.165V38.3328C0.855469 36.8206 2.07194 35.5948 3.57253 35.5948C5.07312 35.5948 6.28959 36.8206 6.28959 38.3328V134.165C6.28959 138.701 9.939 142.379 14.4408 142.379H133.53C138.031 142.379 141.681 138.701 141.681 134.165V13.6903C141.681 9.15373 138.031 5.47612 133.53 5.47612H14.4408C9.939 5.47612 6.28959 9.15373 6.28959 13.6903V24.6425C6.28959 26.1547 5.07312 27.3806 3.57253 27.3806C2.07194 27.3806 0.855469 26.1547 0.855469 24.6425V13.6903C0.864452 6.13311 6.94154 0.00905235 14.4408 0H133.53C141.029 0.00905235 147.106 6.13311 147.115 13.6903V134.165C147.096 140.831 142.315 146.515 135.793 147.625L130.359 147.855H92.7736H87.3395Z" fill="white"/>
<path d="M22.1311 93.0935C20.6305 93.0935 19.4141 94.3194 19.4141 95.8316V120.474C19.4141 125.011 23.0635 128.688 27.5652 128.688H119.945C124.447 128.688 128.096 125.011 128.096 120.474V117.736C132.598 117.736 136.248 114.058 136.248 109.522V93.0935C136.248 88.557 132.598 84.8793 128.096 84.8793V62.9749C132.598 62.9749 136.248 59.2973 136.248 54.7607V38.3324C136.248 33.7958 132.598 30.1182 128.096 30.1182V27.3802C128.096 22.8436 124.447 19.166 119.945 19.166H27.5652C23.0635 19.166 19.4141 22.8436 19.4141 27.3802V82.1413C19.4141 83.6535 20.6305 84.8793 22.1311 84.8793C23.6317 84.8793 24.8482 83.6535 24.8482 82.1413V27.3802C24.8482 25.868 26.0646 24.6421 27.5652 24.6421H119.945C121.446 24.6421 122.662 25.868 122.662 27.3802V30.1182C118.161 30.1182 114.511 33.7958 114.511 38.3324V54.7607C114.511 59.2973 118.161 62.9749 122.662 62.9749V84.8793C118.161 84.8793 114.511 88.557 114.511 93.0935V109.522C114.511 114.058 118.161 117.736 122.662 117.736V120.474C122.662 121.986 121.446 123.212 119.945 123.212H27.5652C26.0646 123.212 24.8482 121.986 24.8482 120.474V95.8316C24.8482 94.3194 23.6317 93.0935 22.1311 93.0935ZM119.945 54.7607V38.3324C119.945 36.8202 121.162 35.5943 122.662 35.5943H128.096C129.597 35.5943 130.813 36.8202 130.813 38.3324V54.7607C130.813 56.2729 129.597 57.4988 128.096 57.4988H122.662C121.162 57.4988 119.945 56.2729 119.945 54.7607ZM119.945 109.522V93.0935C119.945 91.5813 121.162 90.3555 122.662 90.3555H128.096C129.597 90.3555 130.813 91.5813 130.813 93.0935V109.522C130.813 111.034 129.597 112.26 128.096 112.26H122.662C121.162 112.26 119.945 111.034 119.945 109.522Z" fill="white"/>
<path d="M43.6304 86.5014C49.5828 100.983 64.8579 109.211 80.1141 106.154C95.3702 103.096 106.358 89.6034 106.358 73.9282C106.358 58.2531 95.3702 44.7608 80.1141 41.7029C64.8579 38.645 49.5828 46.873 43.6304 61.3551C40.2951 69.4002 40.2951 78.4562 43.6304 86.5014ZM60.8946 49.8115L61.8836 52.2155C62.2413 53.1399 63.0672 53.797 64.0424 53.9331C65.0177 54.0692 65.9898 53.663 66.5832 52.8713C67.1766 52.0796 67.2986 51.0263 66.9021 50.1181L65.9158 47.7141C71.0242 46.148 76.4793 46.148 81.5878 47.7141L80.6015 50.1181C80.2049 51.0263 80.3269 52.0796 80.9203 52.8713C81.5138 53.663 82.4858 54.0692 83.4611 53.9331C84.4364 53.797 85.2623 53.1399 85.6199 52.2155L86.6089 49.8087C91.3192 52.3425 95.1758 56.23 97.6891 60.9772L95.3035 61.9739C94.3861 62.3343 93.734 63.1666 93.599 64.1494C93.4639 65.1322 93.8671 66.1117 94.6527 66.7098C95.4384 67.3078 96.4836 67.4307 97.3848 67.0311L99.7703 66.0372C101.324 71.185 101.324 76.6824 99.7703 81.8302L97.3848 80.8363C96.4836 80.4367 95.4384 80.5596 94.6527 81.1576C93.8671 81.7557 93.4639 82.7352 93.599 83.718C93.734 84.7008 94.3861 85.5331 95.3035 85.8935L97.6918 86.8902C95.1774 91.6368 91.3198 95.5233 86.6089 98.0559L85.6199 95.6519C85.2623 94.7275 84.4364 94.0703 83.4611 93.9342C82.4858 93.7982 81.5138 94.2044 80.9203 94.9961C80.3269 95.7878 80.2049 96.8411 80.6015 97.7493L81.5878 100.153C76.4793 101.719 71.0242 101.719 65.9158 100.153L66.9021 97.7493C67.2986 96.8411 67.1766 95.7878 66.5832 94.9961C65.9898 94.2044 65.0177 93.7982 64.0424 93.9342C63.0672 94.0703 62.2413 94.7275 61.8836 95.6519L60.8946 98.0587C56.1844 95.5249 52.3277 91.6374 49.8145 86.8902L52.2 85.8935C53.1174 85.5331 53.7695 84.7008 53.9045 83.718C54.0396 82.7352 53.6365 81.7557 52.8508 81.1576C52.0652 80.5596 51.02 80.4367 50.1188 80.8363L47.7332 81.8302C46.1791 76.6824 46.1791 71.185 47.7332 66.0372L50.1188 67.0311C51.02 67.4307 52.0652 67.3078 52.8508 66.7098C53.6365 66.1117 54.0396 65.1322 53.9045 64.1494C53.7695 63.1666 53.1174 62.3343 52.2 61.9739L49.8117 60.9772C52.3253 56.2286 56.183 52.3401 60.8946 49.806V49.8115Z" fill="white"/>
<path d="M73.774 90.3567C80.9535 90.3454 87.2805 85.6024 89.3554 78.6762C91.4303 71.7499 88.7645 64.2712 82.7905 60.2584C76.8164 56.2457 68.9406 56.6437 63.395 61.2387C57.8493 65.8336 55.9395 73.5436 58.6916 80.2259C61.2264 86.3632 67.1772 90.3604 73.774 90.3567ZM69.5924 63.7976C75.1384 61.4919 81.4893 64.1509 83.7812 69.7381C86.073 75.3253 83.4389 81.7271 77.8962 84.0407C72.3534 86.3542 65.9988 83.7042 63.6991 78.1203C62.5851 75.4345 62.5809 72.4117 63.6873 69.7227C64.7937 67.0337 66.9193 64.9009 69.5924 63.7976Z" fill="white"/>
<path d="M46.5836 30.1191H32.9983C31.4977 30.1191 30.2812 31.345 30.2812 32.8572V46.5476C30.2812 48.0598 31.4977 49.2856 32.9983 49.2856C34.4989 49.2856 35.7154 48.0598 35.7154 46.5476V35.5953H46.5836C48.0842 35.5953 49.3006 34.3694 49.3006 32.8572C49.3006 31.345 48.0842 30.1191 46.5836 30.1191Z" fill="white"/>
</svg>
