<svg width="150" height="148" viewBox="0 0 150 148" fill="none" xmlns="http://www.w3.org/2000/svg">
<path d="M149.992 103.514C150.051 102.855 149.776 102.174 149.275 101.73L142.189 95.4434C135.938 89.8974 132.353 81.97 132.353 73.694C132.353 65.4179 135.938 57.4906 142.189 51.9446L149.275 45.6577C150.765 44.3268 149.71 41.8032 147.69 41.8976L138.156 42.3759C130.998 42.7341 123.949 40.5538 118.314 36.2325C117.358 35.4988 115.977 35.6663 115.23 36.6065C114.484 37.547 114.654 38.9041 115.611 39.6378C121.328 44.0222 128.31 46.4839 135.528 46.7137L121.091 52.5905L115.368 52.8779C110.209 53.1359 105.156 51.2267 101.504 47.6377C97.8519 44.0484 95.9081 39.0826 96.1718 34.0135L96.464 28.3901L102.439 14.2147C102.641 20.7328 104.734 26.9486 108.565 32.339C109.26 33.3169 110.631 33.5557 111.625 32.8729C112.62 32.1899 112.863 30.8434 112.169 29.8658C108.353 24.4981 106.517 18.1885 106.858 11.6185L107.345 2.24854C107.447 0.263677 104.877 -0.779288 103.519 0.691288L97.1218 7.65514C91.4784 13.7983 83.412 17.3214 74.9906 17.3214C66.5693 17.3214 58.5028 13.7983 52.8595 7.65543L46.4614 0.690424C45.1021 -0.776121 42.5365 0.259358 42.6356 2.24767L43.1225 11.6177C43.5521 19.8828 40.3832 27.9794 34.4284 33.8318C28.4736 39.6839 20.2354 42.7966 11.8241 42.3759L2.28959 41.8976C0.268132 41.794 -0.781714 44.3294 0.705007 45.6577L7.7911 51.9446C12.9747 56.5435 16.2608 62.5479 17.2939 69.3088C17.4577 70.3797 18.395 71.1479 19.4645 71.1479C19.5732 71.1479 19.6831 71.1401 19.7939 71.1237C20.994 70.9466 21.8209 69.8466 21.6407 68.6672C20.6125 61.9412 17.4935 55.6592 12.7711 50.7044L27.2087 56.5815L31.4617 60.3546C35.2954 63.7562 37.4942 68.6182 37.4942 73.6943C37.4942 78.7703 35.2954 83.6324 31.4617 87.0337L27.2087 90.807L12.7708 96.6842C17.4935 91.7294 20.6128 85.4471 21.641 78.7208C21.8212 77.541 20.9943 76.4414 19.7942 76.2643C18.5955 76.0875 17.4747 76.9001 17.2945 78.0792C16.2614 84.8398 12.9753 90.8445 7.79169 95.4437L0.705007 101.73C-0.796364 103.06 0.272821 105.59 2.28959 105.49L11.8241 105.012C20.2351 104.591 28.4736 107.704 34.4284 113.556C40.3832 119.408 43.5521 127.505 43.1225 135.77L42.6356 145.14C42.5365 147.131 45.1109 148.168 46.4614 146.698L52.8589 139.733C58.5022 133.591 66.5687 130.068 74.99 130.068C83.4114 130.068 91.4779 133.591 97.1212 139.733L103.519 146.698C104.859 148.155 107.446 147.121 107.345 145.14L106.858 135.77C106.428 127.505 109.597 119.409 115.552 113.556C121.506 107.704 129.744 104.593 138.156 105.012L147.69 105.49C148.854 105.553 149.895 104.654 149.992 103.514ZM137.208 96.6836L122.772 90.8068L118.519 87.0337C114.685 83.6321 112.486 78.77 112.486 73.694C112.486 68.618 114.685 63.7559 118.519 60.3546L122.772 56.5812L137.208 50.7044C131.299 56.9052 127.958 65.1366 127.958 73.694C127.958 82.2514 131.3 90.4825 137.208 96.6836ZM64.8962 83.6134C63.9744 82.7075 62.9126 81.9698 61.7634 81.4157L70.9292 77.6844L67.1325 86.6925C66.5687 85.5628 65.818 84.5196 64.8962 83.6134ZM85.0839 63.7743C86.006 64.6802 87.0675 65.4179 88.2167 65.972L79.0508 69.7033L82.8476 60.6952C83.4114 61.8249 84.1621 62.8684 85.0839 63.7743ZM67.1328 60.6955L70.9295 69.7035L61.7634 65.9722C62.9126 65.4182 63.9744 64.6805 64.8965 63.7746C65.818 62.8684 66.5687 61.8249 67.1328 60.6955ZM71.1932 59.0424C72.4045 59.4492 73.6862 59.6652 74.99 59.6652C76.2939 59.6652 77.5755 59.449 78.7868 59.0424L74.99 68.0507L71.1932 59.0424ZM82.8473 86.6925L79.0505 77.6844L88.2167 81.4157C87.0675 81.9698 86.0057 82.7075 85.0836 83.6134C84.1621 84.5196 83.4114 85.5628 82.8473 86.6925ZM78.7868 88.3456C77.5755 87.9387 76.2939 87.7228 74.99 87.7228C73.6862 87.7228 72.4045 87.939 71.1932 88.3456L74.99 79.3373L78.7868 88.3456ZM80.7324 73.694L89.8988 69.9627C89.4848 71.1531 89.2651 72.4126 89.2651 73.694C89.2651 74.9754 89.4851 76.2349 89.8988 77.4253L80.7324 73.694ZM82.1104 51.1568L80.4543 52.9594V52.9596C79.0406 54.4985 77.1 55.3459 74.99 55.3459C72.8801 55.3459 70.9395 54.4985 69.5257 52.9594L67.8697 51.1568L61.945 37.1001C65.7342 39.7161 70.2881 41.1639 74.99 41.1639C79.6922 41.1639 84.2461 39.7158 88.0353 37.0998L82.1104 51.1568ZM63.8092 52.8096L63.9352 55.2353C64.0427 57.306 63.2803 59.254 61.7883 60.7203C60.2966 62.1862 58.3129 62.932 56.2074 62.8295L53.7388 62.7057L39.4383 56.8844C43.9992 56.1015 48.2598 53.9588 51.584 50.6917C54.9091 47.424 57.087 43.2358 57.884 38.7529L63.8092 52.8096ZM69.2477 73.694L60.0812 77.4253C60.4953 76.2349 60.715 74.9754 60.715 73.694C60.715 72.4126 60.495 71.1531 60.0812 69.9627L69.2477 73.694ZM67.8697 96.2312L69.5257 94.4283C70.9395 92.8895 72.8801 92.0421 74.99 92.0421C77.1 92.0421 79.0406 92.8895 80.4543 94.4286L82.1104 96.2312L88.035 110.288C84.2458 107.672 79.6919 106.224 74.99 106.224C70.2879 106.224 65.7339 107.672 61.9448 110.288L67.8697 96.2312ZM86.1712 94.5781L86.0452 92.1524C85.9377 90.0817 86.7001 88.1337 88.1921 86.6674C89.6838 85.2015 91.6654 84.4542 93.773 84.5582L96.2416 84.682L110.543 90.5035C105.983 91.2868 101.721 93.4289 98.3964 96.696C95.0713 99.9637 92.8934 104.152 92.0964 108.635L86.1712 94.5781ZM97.9226 80.6915L96.0883 79.0637C94.5222 77.6744 93.6599 75.7675 93.6599 73.694C93.6599 71.6204 94.5222 69.7136 96.0883 68.324L97.9226 66.6964L112.227 60.8737C109.565 64.5976 108.091 69.0729 108.091 73.694C108.091 78.3151 109.565 82.7904 112.226 86.5142L97.9226 80.6915ZM98.3958 50.6917C101.72 53.9583 105.98 56.1018 110.541 56.885L96.241 62.7057L93.7724 62.8295C91.6657 62.9332 89.6835 62.1862 88.1918 60.7203C86.6998 59.254 85.9374 57.3063 86.0449 55.2353L86.1709 52.8096L92.0955 38.7529C92.8928 43.2358 95.071 47.424 98.3958 50.6917ZM74.99 21.6399C83.6976 21.6399 92.0735 18.3558 98.3832 12.5486L92.4029 26.7369L88.5636 30.916C85.1026 34.6838 80.1549 36.8447 74.99 36.8447C69.8252 36.8447 64.8775 34.6838 61.4165 30.916L57.5772 26.7369L51.5969 12.5486C57.9065 18.3558 66.2824 21.6399 74.99 21.6399ZM37.5363 36.8858C43.6933 30.8351 47.2531 22.692 47.5364 14.2015L53.5164 28.3898L53.8085 34.0132C54.0719 39.0826 52.1284 44.0484 48.4764 47.6374C44.824 51.2267 39.7723 53.1339 34.6124 52.8776L28.8897 52.5902L14.455 46.7142C23.0964 46.439 31.3794 42.9366 37.5363 36.8858ZM37.7538 60.8737L52.0575 66.6962L53.8917 68.324C55.4579 69.7133 56.3202 71.6202 56.3202 73.6937C56.3202 75.7673 55.4579 77.6741 53.8917 79.0637L52.0575 80.6913L37.7535 86.5139C40.4154 82.7901 41.889 78.3148 41.889 73.6937C41.889 69.0729 40.4157 64.5976 37.7538 60.8737ZM37.5363 110.502C31.3788 104.451 23.0922 100.953 14.4517 100.675L28.89 94.7975L34.6127 94.5104C37.8689 94.348 41.1043 95.0348 43.9696 96.501C45.0461 97.0516 46.3735 96.6404 46.9337 95.5827C47.4942 94.5248 47.0758 93.2207 45.9993 92.6701C43.94 91.6168 41.7275 90.8894 39.4471 90.5004L53.7394 84.6826L56.208 84.5588C58.3164 84.4548 60.2969 85.202 61.7886 86.668C63.2806 88.1343 64.043 90.082 63.9355 92.1529L63.8095 94.5787L57.896 108.609C57.3182 105.318 55.9903 102.204 53.9527 99.4298C53.2424 98.4628 51.8691 98.2449 50.8846 98.9429C49.9004 99.6409 49.6786 100.991 50.3888 101.958C52.841 105.297 54.0236 109.245 53.8091 113.375L53.517 118.999L47.537 133.187C47.2531 124.695 43.6933 116.553 37.5363 110.502ZM74.99 125.748C66.2824 125.748 57.9065 129.032 51.5969 134.839L57.5772 120.651L61.4165 116.472C64.8775 112.704 69.8252 110.543 74.99 110.543C80.1549 110.543 85.1026 112.704 88.5636 116.472L92.4029 120.651L98.3832 134.839C92.0735 129.032 83.6976 125.748 74.99 125.748ZM112.444 110.502C106.287 116.553 102.727 124.696 102.444 133.186L96.4637 118.998L96.1715 113.374C95.9078 108.305 97.8517 103.339 101.504 99.75C105.156 96.1609 110.208 94.2504 115.368 94.5098L121.09 94.7969L135.527 100.674C126.888 100.952 118.601 104.451 112.444 110.502Z" fill="white"/>
</svg>
